<?xml version="1.0" standalone="no"?><!DOCTYPE svg PUBLIC "-//W3C//DTD SVG 1.1//EN" "http://www.w3.org/Graphics/SVG/1.1/DTD/svg11.dtd"><svg t="1702280776343" class="icon" viewBox="0 0 1024 1024" version="1.1" xmlns="http://www.w3.org/2000/svg" p-id="5113" data-spm-anchor-id="a313x.search_index.0.i6.16683a81dDxmDI" xmlns:xlink="http://www.w3.org/1999/xlink" width="200" height="200"><path d="M541.866667 838.4c-8.533333 0-19.2-2.133333-27.733334-6.4-17.066667-10.666667-29.866667-27.733333-29.866666-49.066667V386.133333c0-36.266667 17.066667-70.4 44.8-93.866666C708.266667 149.333333 878.933333 177.066667 945.066667 196.266667c27.733333 8.533333 46.933333 34.133333 46.933333 61.866666v469.333334c0 17.066667-8.533333 34.133333-21.333333 44.8-14.933333 10.666667-32 14.933333-49.066667 10.666666-164.266667-44.8-290.133333 12.8-349.866667 49.066667-8.533333 4.266667-19.2 6.4-29.866666 6.4z m288-593.066667c-70.4 0-162.133333 19.2-258.133334 98.133334-12.8 10.666667-21.333333 27.733333-21.333333 44.8V768c70.4-40.533333 204.8-93.866667 377.6-51.2V258.133333c-21.333333-6.4-55.466667-12.8-98.133333-12.8z" fill="#FFBB12" p-id="5114"></path><path d="M494.933333 842.666667c-10.666667 0-21.333333-2.133333-29.866666-8.533334-59.733333-36.266667-183.466667-93.866667-349.866667-49.066666-17.066667 4.266667-34.133333 0-49.066667-10.666667-12.8-10.666667-21.333333-25.6-21.333333-44.8v-469.333333c0-29.866667 19.2-55.466667 46.933333-61.866667 66.133333-19.2 236.8-46.933333 413.866667 98.133333 27.733333 23.466667 44.8 57.6 44.8 93.866667v396.8c0 21.333333-10.666667 38.4-29.866667 49.066667-6.4 4.266667-14.933333 6.4-25.6 6.4z m-258.133333-136.533334c110.933333 0 198.4 36.266667 249.6 68.266667v-384c0-17.066667-8.533333-32-21.333333-44.8-153.6-125.866667-298.666667-100.266667-354.133334-85.333333v458.666666c44.8-8.533333 87.466667-12.8 125.866667-12.8z" fill="#1296db" p-id="5115" data-spm-anchor-id="a313x.search_index.0.i4.16683a81dDxmDI" class="selected"></path></svg>